<?xml version="1.0" standalone="no"?>
<!DOCTYPE svg PUBLIC "-//W3C//DTD SVG 20010904//EN"
 "http://www.w3.org/TR/2001/REC-SVG-20010904/DTD/svg10.dtd">
<svg version="1.0" xmlns="http://www.w3.org/2000/svg"
 width="512.000000pt" height="512.000000pt" viewBox="0 0 512.000000 512.000000"
 preserveAspectRatio="xMidYMid meet">

<g transform="translate(0.000000,512.000000) scale(0.100000,-0.100000)"
fill="#000000" stroke="none">
<path d="M1452 4459 c-98 -17 -241 -71 -323 -122 -155 -95 -298 -258 -363
-414 -58 -138 -71 -207 -70 -368 1 -133 4 -160 28 -239 50 -167 132 -301 250
-414 l66 -63 -32 -17 c-374 -202 -626 -567 -677 -982 -17 -130 -14 -444 4
-513 45 -173 178 -307 350 -352 46 -12 118 -15 322 -15 l263 0 4 -22 c3 -13 8
-44 11 -69 8 -64 64 -175 117 -234 58 -63 143 -115 227 -137 60 -15 146 -17
931 -17 785 0 871 2 931 17 84 22 169 74 227 137 53 59 109 170 117 234 3 25
8 56 11 69 l4 22 263 0 c285 0 330 6 429 56 118 60 220 196 248 331 18 83 7
494 -15 590 -83 373 -301 674 -624 863 l-69 40 65 62 c117 113 199 248 249
414 25 80 28 104 28 244 0 140 -3 164 -28 244 -51 170 -133 304 -254 418 -262
247 -641 315 -980 175 -149 -61 -313 -200 -405 -342 l-45 -70 -152 1 -152 1
-50 74 c-125 188 -309 320 -533 381 -81 23 -290 32 -373 17z m339 -341 c120
-44 223 -119 284 -209 l30 -42 -25 -16 c-143 -94 -256 -222 -330 -374 -67
-140 -81 -197 -87 -364 l-6 -143 -62 0 c-260 0 -499 189 -565 445 -80 312 107
630 421 715 101 28 246 22 340 -12z m1874 12 c315 -81 505 -401 425 -715 -53
-209 -216 -372 -425 -425 -43 -11 -103 -20 -134 -20 l-56 0 -2 113 c-1 128
-18 218 -62 332 -60 155 -192 322 -329 414 -71 48 -71 46 3 129 143 159 368
226 580 172z m-915 -490 c178 -61 324 -209 381 -390 30 -91 30 -249 1 -340
-80 -249 -310 -420 -567 -420 -159 0 -297 60 -416 179 -120 120 -169 240 -169
411 0 172 49 291 169 410 84 83 179 140 277 165 85 21 240 14 324 -15z m-1028
-998 c44 -7 49 -11 89 -72 24 -35 76 -97 116 -136 l73 -72 -66 -37 c-213 -116
-413 -325 -524 -544 -63 -125 -130 -366 -130 -467 l0 -35 -269 3 c-254 3 -271
4 -297 24 -66 49 -69 59 -72 252 -4 197 7 296 45 417 97 306 336 541 648 634
120 36 271 49 387 33z m1925 -3 c363 -50 677 -315 786 -664 38 -121 49 -221
45 -417 -3 -193 -6 -203 -72 -252 -26 -20 -43 -21 -297 -24 l-269 -3 0 36 c0
98 -69 343 -130 466 -109 215 -312 429 -515 540 -33 18 -61 33 -63 35 -2 1 30
35 70 75 40 41 93 103 117 139 37 56 48 66 79 71 62 10 167 10 249 -2z m-859
-498 c324 -80 589 -326 690 -641 38 -120 46 -181 46 -385 1 -194 0 -201 -23
-239 -15 -24 -40 -45 -65 -57 -39 -18 -84 -19 -880 -19 l-838 0 -40 22 c-21
12 -49 38 -61 58 -21 33 -22 46 -21 235 0 205 7 263 46 385 92 288 323 521
617 620 160 53 363 61 529 21z"/>
</g>
</svg>
